<svg xmlns="http://www.w3.org/2000/svg" viewBox="0 0 100 100" width="18" height="18">
  <defs>
    <linearGradient id="odooGradient" x1="0%" y1="0%" x2="100%" y2="100%">
      <stop offset="0%" style="stop-color:#714B67;stop-opacity:1" />
      <stop offset="100%" style="stop-color:#875A7B;stop-opacity:1" />
    </linearGradient>
  </defs>
  <circle cx="50" cy="50" r="45" fill="url(#odooGradient)"/>
  <path d="M30 50 C30 38 38 30 50 30 C62 30 70 38 70 50 C70 62 62 70 50 70 C38 70 30 62 30 50 Z M40 50 C40 56 44 60 50 60 C56 60 60 56 60 50 C60 44 56 40 50 40 C44 40 40 44 40 50 Z" fill="white"/>
  <circle cx="50" cy="50" r="8" fill="white"/>
  <path d="M75 25 L85 35 M75 35 L85 25" stroke="white" stroke-width="3" stroke-linecap="round"/>
</svg>
